<svg width="22" height="22" viewBox="0 0 22 22" fill="none" xmlns="http://www.w3.org/2000/svg">
<path d="M4.8125 3.4375C4.44783 3.4375 4.09809 3.58237 3.84023 3.84023C3.58237 4.09809 3.4375 4.44783 3.4375 4.8125V17.1875C3.4375 17.5522 3.58237 17.9019 3.84023 18.1598C4.09809 18.4176 4.44783 18.5625 4.8125 18.5625H17.1875C17.5522 18.5625 17.9019 18.4176 18.1598 18.1598C18.4176 17.9019 18.5625 17.5522 18.5625 17.1875V4.8125C18.5625 4.44783 18.4176 4.09809 18.1598 3.84023C17.9019 3.58237 17.5522 3.4375 17.1875 3.4375H4.8125ZM4.8125 2.0625H17.1875C17.9168 2.0625 18.6163 2.35223 19.132 2.86796C19.6478 3.38368 19.9375 4.08315 19.9375 4.8125V17.1875C19.9375 17.9168 19.6478 18.6163 19.132 19.132C18.6163 19.6478 17.9168 19.9375 17.1875 19.9375H4.8125C4.08315 19.9375 3.38368 19.6478 2.86796 19.132C2.35223 18.6163 2.0625 17.9168 2.0625 17.1875V4.8125C2.0625 4.08315 2.35223 3.38368 2.86796 2.86796C3.38368 2.35223 4.08315 2.0625 4.8125 2.0625Z" fill="#3A4B57"/>
<path d="M8.25 8.9375C8.61467 8.9375 8.96441 8.79263 9.22227 8.53477C9.48013 8.27691 9.625 7.92717 9.625 7.5625C9.625 7.19783 9.48013 6.84809 9.22227 6.59023C8.96441 6.33237 8.61467 6.1875 8.25 6.1875C7.88533 6.1875 7.53559 6.33237 7.27773 6.59023C7.01987 6.84809 6.875 7.19783 6.875 7.5625C6.875 7.92717 7.01987 8.27691 7.27773 8.53477C7.53559 8.79263 7.88533 8.9375 8.25 8.9375ZM8.25 10.3125C7.52065 10.3125 6.82118 10.0228 6.30546 9.50704C5.78973 8.99132 5.5 8.29185 5.5 7.5625C5.5 6.83315 5.78973 6.13368 6.30546 5.61796C6.82118 5.10223 7.52065 4.8125 8.25 4.8125C8.97935 4.8125 9.67882 5.10223 10.1945 5.61796C10.7103 6.13368 11 6.83315 11 7.5625C11 8.29185 10.7103 8.99132 10.1945 9.50704C9.67882 10.0228 8.97935 10.3125 8.25 10.3125Z" fill="#3A4B57"/>
<path d="M10.3125 6.875H15.8125C16.2708 6.875 16.5 7.10417 16.5 7.5625C16.5 8.02083 16.2708 8.25 15.8125 8.25H10.3125C9.85417 8.25 9.625 8.02083 9.625 7.5625C9.625 7.10417 9.85417 6.875 10.3125 6.875ZM13.75 15.8125C14.1147 15.8125 14.4644 15.6676 14.7223 15.4098C14.9801 15.1519 15.125 14.8022 15.125 14.4375C15.125 14.0728 14.9801 13.7231 14.7223 13.4652C14.4644 13.2074 14.1147 13.0625 13.75 13.0625C13.3853 13.0625 13.0356 13.2074 12.7777 13.4652C12.5199 13.7231 12.375 14.0728 12.375 14.4375C12.375 14.8022 12.5199 15.1519 12.7777 15.4098C13.0356 15.6676 13.3853 15.8125 13.75 15.8125ZM13.75 17.1875C13.0207 17.1875 12.3212 16.8978 11.8055 16.382C11.2897 15.8663 11 15.1668 11 14.4375C11 13.7082 11.2897 13.0087 11.8055 12.493C12.3212 11.9772 13.0207 11.6875 13.75 11.6875C14.4793 11.6875 15.1788 11.9772 15.6945 12.493C16.2103 13.0087 16.5 13.7082 16.5 14.4375C16.5 15.1668 16.2103 15.8663 15.6945 16.382C15.1788 16.8978 14.4793 17.1875 13.75 17.1875Z" fill="#3A4B57"/>
<path d="M6.1875 13.75H11.6875C12.1458 13.75 12.375 13.9792 12.375 14.4375C12.375 14.8958 12.1458 15.125 11.6875 15.125H6.1875C5.72917 15.125 5.5 14.8958 5.5 14.4375C5.5 13.9792 5.72917 13.75 6.1875 13.75Z" fill="#3A4B57"/>
</svg>
