<svg width="25" height="25" viewBox="0 0 25 25" fill="none" xmlns="http://www.w3.org/2000/svg">
<path d="M12.4996 12.5C13.8146 12.5 14.8806 11.434 14.8806 10.1191C14.8806 8.80409 13.8146 7.7381 12.4996 7.7381C11.1846 7.7381 10.1187 8.80409 10.1187 10.1191C10.1187 11.434 11.1846 12.5 12.4996 12.5Z" stroke="#3A4B57" stroke-width="1.5" stroke-linecap="round" stroke-linejoin="round"/>
<path d="M4.1665 7.7381H5.35698V6.54762C5.35698 5.91616 5.60783 5.31055 6.05434 4.86404C6.50086 4.41752 7.10646 4.16667 7.73793 4.16667H17.2617C17.8932 4.16667 18.4988 4.41752 18.9453 4.86404C19.3918 5.31055 19.6427 5.91616 19.6427 6.54762V18.4524C19.6427 19.0839 19.3918 19.6895 18.9453 20.136C18.4988 20.5825 17.8932 20.8333 17.2617 20.8333H7.73793C7.10646 20.8333 6.50086 20.5825 6.05434 20.136C5.60783 19.6895 5.35698 19.0839 5.35698 18.4524V17.2619H4.1665M4.1665 12.5H5.35698M4.1665 10.1191H5.35698M4.1665 14.881H5.35698" stroke="#3A4B57" stroke-width="1.5" stroke-linecap="round" stroke-linejoin="round"/>
<path fill-rule="evenodd" clip-rule="evenodd" d="M16.0711 16.0714V14.881C16.0711 14.2495 15.8202 13.6439 15.3737 13.1974C14.9272 12.7509 14.3216 12.5 13.6901 12.5H11.3092C10.6777 12.5 10.0721 12.7509 9.62559 13.1974C9.17907 13.6439 8.92822 14.2495 8.92822 14.881V16.0714C8.92822 16.3872 9.05365 16.69 9.27691 16.9132C9.50016 17.1365 9.80296 17.2619 10.1187 17.2619H14.8806C15.1963 17.2619 15.4991 17.1365 15.7224 16.9132C15.9457 16.69 16.0711 16.3872 16.0711 16.0714Z" stroke="#3A4B57" stroke-width="1.5" stroke-linecap="round" stroke-linejoin="round"/>
</svg>
