<svg width="20" height="18" viewBox="0 0 20 18" fill="none" xmlns="http://www.w3.org/2000/svg">
<path d="M1 2.77778C1 2.30628 1.18964 1.8541 1.52721 1.5207C1.86477 1.1873 2.32261 1 2.8 1H6.2C7.30457 1 8.2 1.89543 8.2 3V15C8.2 16.1046 7.30457 17 6.2 17H2.8C2.32261 17 1.86477 16.8127 1.52721 16.4793C1.18964 16.1459 1 15.6937 1 15.2222V2.77778ZM11.8 1H17.2C17.6774 1 18.1352 1.1873 18.4728 1.5207C18.8104 1.8541 19 2.30628 19 2.77778V7.22222H13.8C12.6954 7.22222 11.8 6.32679 11.8 5.22222V1ZM11.8 12.7778C11.8 11.6732 12.6954 10.7778 13.8 10.7778H19V15.2222C19 15.6937 18.8104 16.1459 18.4728 16.4793C18.1352 16.8127 17.6774 17 17.2 17H11.8V12.7778Z" stroke="#3A4B57" stroke-width="1.5" stroke-linecap="round" stroke-linejoin="round"/>
</svg>
