<svg width="22" height="22" viewBox="0 0 22 22" fill="none" xmlns="http://www.w3.org/2000/svg">
<path d="M18.7913 5.5H3.20801M17.2633 7.79167L16.8416 14.1167C16.6793 16.5495 16.5987 17.7659 15.8058 18.5075C15.0128 19.25 13.7928 19.25 11.3544 19.25H10.6449C8.20659 19.25 6.98651 19.25 6.19359 18.5075C5.40067 17.7659 5.31909 16.5495 5.15776 14.1167L4.73609 7.79167M8.70801 10.0833L9.16634 14.6667M13.2913 10.0833L12.833 14.6667" stroke="white" stroke-width="1.5" stroke-linecap="round"/>
<path d="M5.95801 5.5H6.05884C6.42775 5.49057 6.78523 5.37004 7.08452 5.15415C7.38381 4.93827 7.61099 4.63709 7.73634 4.29L7.76751 4.19558L7.85642 3.92883C7.93251 3.70058 7.97101 3.58692 8.02143 3.48975C8.12062 3.29944 8.26297 3.13499 8.43711 3.00956C8.61125 2.88413 8.81233 2.80121 9.02426 2.76742C9.13151 2.75 9.25159 2.75 9.49176 2.75H12.5076C12.7478 2.75 12.8678 2.75 12.9751 2.76742C13.187 2.80121 13.3881 2.88413 13.5622 3.00956C13.7364 3.13499 13.8787 3.29944 13.9779 3.48975C14.0283 3.58692 14.0668 3.70058 14.1429 3.92883L14.2318 4.19558C14.348 4.58175 14.5883 4.91884 14.9154 5.15466C15.2425 5.39047 15.6383 5.51185 16.0413 5.5" stroke="white" stroke-width="1.5"/>
</svg>
