<svg width="24" height="24" viewBox="0 0 24 24" fill="none" xmlns="http://www.w3.org/2000/svg">
<g id="Frame 1321315297">
<rect width="24" height="24" rx="6" fill="#161F26"/>
<path id="Vector" d="M6.26469 15.785C6.19313 15.8537 6.10895 15.9074 6.01696 15.943C5.92497 15.9786 5.82696 15.9955 5.72855 15.9927C5.63013 15.9899 5.53322 15.9674 5.44336 15.9265C5.3535 15.8857 5.27244 15.8272 5.20482 15.7546C5.13719 15.6819 5.08433 15.5964 5.04924 15.503C5.01414 15.4096 4.99752 15.31 5.0003 15.2101C5.00308 15.1101 5.02523 15.0117 5.06546 14.9205C5.1057 14.8292 5.16324 14.7469 5.2348 14.6782L11.9808 8.20807C12.12 8.07445 12.3043 8 12.4958 8C12.6873 8 12.8716 8.07445 13.0107 8.20807L19.7575 14.6782C19.8307 14.7465 19.8897 14.8288 19.9313 14.9203C19.9728 15.0119 19.996 15.111 19.9995 15.2118C20.0031 15.3126 19.9868 15.413 19.9518 15.5074C19.9167 15.6018 19.8636 15.6881 19.7954 15.7614C19.7272 15.8347 19.6454 15.8936 19.5547 15.9345C19.4639 15.9754 19.366 15.9976 19.2668 15.9998C19.1675 16.002 19.0688 15.9842 18.9763 15.9473C18.8839 15.9104 18.7996 15.8552 18.7284 15.785L12.4958 9.8081L6.26469 15.785Z" fill="white"/>
</g>
</svg>
