<svg width="33" height="33" viewBox="0 0 33 33" fill="none" xmlns="http://www.w3.org/2000/svg">
<rect width="33" height="33" rx="8" fill="#1E2A33"/>
<path fill-rule="evenodd" clip-rule="evenodd" d="M24.7734 10.739C24.8565 10.8652 24.8936 11.0162 24.8783 11.1665C24.863 11.3168 24.7963 11.4573 24.6894 11.5641L16.6455 19.6071C16.5632 19.6894 16.4606 19.7483 16.348 19.7778L12.9976 20.6528C12.8869 20.6816 12.7705 20.6811 12.6601 20.6511C12.5496 20.6211 12.4489 20.5627 12.368 20.4818C12.2871 20.4009 12.2287 20.3002 12.1987 20.1897C12.1687 20.0793 12.1681 19.9629 12.197 19.8521L13.072 16.5026C13.0976 16.4021 13.1458 16.3087 13.2129 16.2296L21.2865 8.16125C21.4096 8.03836 21.5764 7.96933 21.7503 7.96933C21.9242 7.96933 22.091 8.03836 22.214 8.16125L24.6894 10.6358C24.7208 10.6673 24.7489 10.7018 24.7734 10.739ZM23.2973 11.0995L21.7503 9.55338L14.297 17.0066L13.7501 19.1005L15.844 18.5536L23.2973 11.0995Z" fill="white"/>
<path d="M23.1859 21.015C23.425 18.9709 23.5014 16.9111 23.4142 14.855C23.4123 14.8066 23.4205 14.7582 23.4381 14.7131C23.4557 14.6679 23.4824 14.6269 23.5166 14.5925L24.3776 13.7315C24.4011 13.7078 24.431 13.6915 24.4636 13.6844C24.4962 13.6773 24.5302 13.6797 24.5614 13.6915C24.5926 13.7032 24.6198 13.7237 24.6397 13.7505C24.6595 13.7773 24.6712 13.8093 24.6734 13.8426C24.8354 16.2849 24.7739 18.737 24.4896 21.1681C24.2831 22.9374 22.8621 24.3242 21.1007 24.5211C18.0429 24.8597 14.9571 24.8597 11.8992 24.5211C10.1387 24.3242 8.71686 22.9374 8.51036 21.1681C8.14759 18.0666 8.14759 14.9334 8.51036 11.8319C8.71686 10.0626 10.1379 8.67574 11.8992 8.47887C14.2201 8.22151 16.5584 8.15917 18.8896 8.29249C18.923 8.29489 18.955 8.30679 18.9818 8.3268C19.0086 8.34681 19.0291 8.37408 19.0409 8.40539C19.0526 8.43669 19.0552 8.47071 19.0483 8.50343C19.0413 8.53615 19.0251 8.56619 19.0016 8.58999L18.1327 9.45799C18.0987 9.4919 18.0581 9.51847 18.0134 9.53608C17.9687 9.55369 17.9209 9.56195 17.8729 9.56037C15.9275 9.49424 13.9799 9.56881 12.0454 9.78349C11.4801 9.84606 10.9524 10.0974 10.5475 10.4968C10.1426 10.8963 9.88426 11.4206 9.81411 11.985C9.46328 14.9848 9.46328 18.0152 9.81411 21.015C9.88426 21.5794 10.1426 22.1037 10.5475 22.5031C10.9524 22.9026 11.4801 23.1539 12.0454 23.2165C14.981 23.5446 18.019 23.5446 20.9555 23.2165C21.5208 23.1539 22.0485 22.9026 22.4534 22.5031C22.8582 22.1037 23.1157 21.5794 23.1859 21.015Z" fill="white"/>
</svg>
