<svg width="46" height="46" viewBox="0 0 46 46" fill="none" xmlns="http://www.w3.org/2000/svg">
<rect width="46" height="46" rx="23" fill="#161F26"/>
<path d="M13 23.2039C13 20.9155 13 19.7713 13.5192 18.8227C14.0384 17.8742 14.9869 17.2855 16.884 16.1081L18.884 14.8669C20.8894 13.6223 21.8921 13 23 13C24.1079 13 25.1106 13.6223 27.116 14.8669L29.116 16.1081C31.0131 17.2855 31.9616 17.8742 32.4808 18.8227C33 19.7713 33 20.9155 33 23.2039V24.725C33 28.6258 33 30.5763 31.8284 31.7881C30.6569 33 28.7712 33 25 33H21C17.2288 33 15.3431 33 14.1716 31.7881C13 30.5763 13 28.6258 13 24.725V23.2039Z" fill="white"/>
<path d="M20.4467 26.3975C20.1139 26.1509 19.6442 26.2207 19.3975 26.5534C19.1509 26.8862 19.2207 27.3559 19.5534 27.6026C20.5259 28.3234 21.7151 28.75 23 28.75C24.285 28.75 25.4742 28.3234 26.4467 27.6026C26.7794 27.3559 26.8492 26.8862 26.6026 26.5534C26.3559 26.2207 25.8862 26.1509 25.5534 26.3975C24.8251 26.9374 23.9459 27.25 23 27.25C22.0541 27.25 21.175 26.9374 20.4467 26.3975Z" fill="#A1A1AA"/>
</svg>
