<svg width="56" height="55" viewBox="0 0 56 55" fill="none" xmlns="http://www.w3.org/2000/svg">
<path d="M28 55C43.1878 55 55.5 42.6878 55.5 27.5C55.5 12.3122 43.1878 0 28 0C12.8122 0 0.5 12.3122 0.5 27.5C0.5 42.6878 12.8122 55 28 55Z" fill="#1877F2"/>
<path d="M40.2662 25.3586C40.2655 22.9369 39.571 20.566 38.2648 18.5268C36.9586 16.4875 35.0954 14.8651 32.8959 13.8518C30.6963 12.8384 28.2525 12.4765 25.8536 12.8088C23.4548 13.1412 21.2014 14.1539 19.3602 15.7271C17.519 17.3002 16.1671 19.368 15.4645 21.6856C14.7619 24.0032 14.7381 26.4736 15.3958 28.8043C16.0535 31.135 17.3653 33.2285 19.1758 34.8369C20.9863 36.4453 23.2197 37.5013 25.6117 37.8799V29.0226H22.3936V25.3586H25.6117V22.5665C25.6117 19.3906 27.5039 17.6352 30.399 17.6352C31.3493 17.6487 32.2974 17.7316 33.2356 17.8833V21.0019H31.6383C31.3658 20.9657 31.0886 20.9912 30.8273 21.0767C30.566 21.1622 30.3273 21.3054 30.129 21.4957C29.9306 21.686 29.7776 21.9185 29.6813 22.176C29.585 22.4335 29.548 22.7093 29.5728 22.9831V25.3586H33.0835L32.5218 29.0226H29.5728V37.8788C32.5539 37.4065 35.2686 35.8861 37.2288 33.5911C39.189 31.296 40.2661 28.3769 40.2662 25.3586Z" fill="#1877F2"/>
<path d="M32.5253 29.0238L33.087 25.3598H29.5763V22.982C29.5518 22.7084 29.5892 22.4328 29.6856 22.1756C29.782 21.9184 29.9351 21.6862 30.1334 21.4961C30.3318 21.3061 30.5703 21.1631 30.8314 21.0778C31.0925 20.9924 31.3695 20.9669 31.6417 21.0031H33.2403V17.8845C32.302 17.7328 31.354 17.6499 30.4037 17.6364C27.5086 17.6364 25.6163 19.3917 25.6163 22.5677V25.3598H22.3936V29.0238H25.6116V37.8799C26.924 38.0854 28.2604 38.0854 29.5728 37.8799V29.0238H32.5253Z" fill="white"/>
</svg>
