<svg width="40" height="40" viewBox="0 0 40 40" fill="none" xmlns="http://www.w3.org/2000/svg">
<rect width="40" height="40" rx="20" fill="#F17336"/>
<g clip-path="url(#clip0_107_2824)">
<path d="M11 14.9999C11 14.4695 11.2107 13.9608 11.5858 13.5857C11.9609 13.2107 12.4696 12.9999 13 12.9999H27C27.5304 12.9999 28.0391 13.2107 28.4142 13.5857C28.7893 13.9608 29 14.4695 29 14.9999V24.9999C29 25.5304 28.7893 26.0391 28.4142 26.4142C28.0391 26.7892 27.5304 26.9999 27 26.9999H13C12.4696 26.9999 11.9609 26.7892 11.5858 26.4142C11.2107 26.0391 11 25.5304 11 24.9999V14.9999Z" stroke="white" stroke-width="1.5" stroke-linecap="round" stroke-linejoin="round"/>
<path d="M11 15.0001L20 21.0001L29 15.0001" stroke="white" stroke-width="1.5" stroke-linecap="round" stroke-linejoin="round"/>
</g>
<defs>
<clipPath id="clip0_107_2824">
<rect width="24" height="24" fill="white" transform="translate(8 8)"/>
</clipPath>
</defs>
</svg>
