<svg width="19" height="19" viewBox="0 0 19 19" fill="none" xmlns="http://www.w3.org/2000/svg">
<path d="M11.0306 18.134L11.5096 17.3245L10.3696 16.6493L9.88972 17.4588L11.0306 18.134ZM7.49042 17.3245L7.96939 18.134L9.10939 17.4588L8.6313 16.6493L7.49042 17.3245ZM9.88972 17.4588C9.84842 17.5249 9.79097 17.5794 9.7228 17.6172C9.65462 17.655 9.57795 17.6748 9.5 17.6748C9.42205 17.6748 9.34538 17.655 9.2772 17.6172C9.20903 17.5794 9.15158 17.5249 9.11028 17.4588L7.96939 18.134C8.65251 19.289 10.3466 19.289 11.0306 18.134L9.8906 17.4588H9.88972ZM8.17442 1.32558H10.8256V3.68033e-07H8.17442V1.32558ZM17.6744 8.17442V9.05814H19V8.17442H17.6744ZM1.32558 9.05814V8.17442H0V9.05814H1.32558ZM0 9.05814C0 10.0788 -4.27975e-08 10.8768 0.044186 11.5211C0.088372 12.1706 0.179395 12.7114 0.38707 13.2116L1.61191 12.7044C1.482 12.3933 1.406 12.0133 1.36623 11.4309C1.32558 10.8424 1.32558 10.0965 1.32558 9.05814H0ZM5.79102 15.0162C4.68107 14.9967 4.09958 14.926 3.64358 14.7369L3.13721 15.9618C3.8486 16.2569 4.65809 16.3232 5.76805 16.3426L5.79102 15.0162ZM0.38707 13.2116C0.642434 13.8282 1.01674 14.3884 1.48861 14.8602C1.96048 15.3321 2.52068 15.7064 3.13721 15.9618L3.64358 14.7369C2.72334 14.3557 1.9931 13.6246 1.61191 12.7044L0.38707 13.2116ZM17.6744 9.05814C17.6744 10.0965 17.6744 10.8424 17.6338 11.4309C17.594 12.0133 17.518 12.3933 17.389 12.7044L18.6129 13.2116C18.8206 12.7114 18.9116 12.1706 18.9567 11.5211C19.0009 10.8768 19 10.0788 19 9.05814H17.6744ZM13.232 16.3409C14.3419 16.3223 15.1514 16.2569 15.8628 15.9618L15.3555 14.7369C14.9004 14.926 14.3189 14.9967 13.2099 15.0162L13.232 16.3418V16.3409ZM17.389 12.7044C17.0078 13.6246 16.2767 14.3557 15.3564 14.7369L15.8628 15.9618C16.4793 15.7064 17.0395 15.3321 17.5114 14.8602C17.9833 14.3884 18.3576 13.8282 18.6129 13.2116L17.389 12.7044ZM10.8256 1.32558C12.2846 1.32558 13.3327 1.32558 14.1501 1.40423C14.9579 1.48112 15.4713 1.62781 15.8813 1.87879L16.5733 0.748512C15.9202 0.34907 15.1797 0.170559 14.2756 0.0839539C13.3813 -0.000883328 12.259 3.68033e-07 10.8256 3.68033e-07V1.32558ZM19 8.17442C19 6.74102 19 5.61958 18.9152 4.72437C18.8294 3.82033 18.6509 3.07888 18.2515 2.4267L17.1203 3.11865C17.3722 3.5287 17.5189 4.04214 17.5958 4.85074C17.6735 5.6673 17.6744 6.71539 17.6744 8.17442H19ZM15.8805 1.87879C16.3861 2.18835 16.8113 2.61323 17.1212 3.11865L18.2515 2.4267C17.8324 1.74268 17.2573 1.1676 16.5733 0.748512L15.8813 1.87967L15.8805 1.87879ZM8.17442 3.68033e-07C6.74102 3.68033e-07 5.61958 3.95054e-07 4.72437 0.0839539C3.82033 0.170559 3.07888 0.34907 2.4267 0.748512L3.11865 1.87967C3.5287 1.62781 4.04214 1.48112 4.85074 1.40423C5.6673 1.32647 6.71539 1.32558 8.17442 1.32558V3.68033e-07ZM1.32558 8.17442C1.32558 6.71539 1.32558 5.6673 1.40423 4.84986C1.48112 4.04214 1.62781 3.5287 1.87879 3.11865L0.748511 2.42758C0.34907 3.07977 0.170558 3.82033 0.0839535 4.72437C2.63369e-08 5.62047 0 6.74102 0 8.17442H1.32558ZM2.4267 0.748512C1.74268 1.1676 1.1676 1.74356 0.748511 2.42758L1.87967 3.11865C2.1891 2.61343 2.61365 2.18857 3.11865 1.87879L2.4267 0.748512ZM8.63042 16.6493C8.45191 16.3462 8.2946 16.0784 8.14084 15.8681C7.98268 15.6375 7.77722 15.4432 7.53814 15.2981L6.87181 16.4443C6.91335 16.469 6.97079 16.5132 7.06977 16.6493C7.1767 16.796 7.29777 16.9993 7.49042 17.3245L8.63042 16.6493ZM5.76805 16.3409C6.15688 16.348 6.40167 16.3533 6.58902 16.3736C6.764 16.393 6.83205 16.4213 6.87181 16.4443L7.53814 15.2981C7.29071 15.161 7.01681 15.0785 6.73484 15.056C6.47149 15.0268 6.15512 15.0224 5.79102 15.0162L5.76805 16.3426V16.3409ZM11.5096 17.3245C11.7022 17.0001 11.8233 16.796 11.9302 16.6493C12.0292 16.5132 12.0867 16.469 12.1282 16.4443L11.4619 15.2981C11.2056 15.4483 11.02 15.6472 10.8592 15.8681C10.7063 16.0784 10.5481 16.3453 10.3687 16.6493L11.5096 17.3245ZM13.2099 15.0162C12.8458 15.0224 12.5285 15.0268 12.2652 15.056C11.9903 15.0869 11.7208 15.1479 11.4619 15.2981L12.1282 16.4443C12.168 16.4213 12.236 16.393 12.411 16.3736C12.5983 16.3533 12.844 16.3471 13.2328 16.3409L13.2099 15.0153V15.0162Z" fill="#3A4B57"/>
<path d="M5.96533 6.84883H13.0351M5.96533 9.94185H10.8258" stroke="#3A4B57" stroke-width="1.5" stroke-linecap="round"/>
</svg>
