<svg width="23" height="23" viewBox="0 0 23 23" fill="none" xmlns="http://www.w3.org/2000/svg">
<path d="M7.04931 3.21196C7.83358 2.618 8.791 2.29764 9.77481 2.30001C10.1146 2.29239 10.4508 2.37059 10.7523 2.52738C11.0538 2.68417 11.3109 2.91449 11.4998 3.19701C11.6887 2.91449 11.9458 2.68417 12.2473 2.52738C12.5488 2.37059 12.885 2.29239 13.2248 2.30001C14.2086 2.29764 15.166 2.618 15.9503 3.21196C16.5541 3.68116 17.0198 4.33091 17.1843 5.11636C17.5615 5.14511 17.9065 5.30151 18.1963 5.53726C18.6356 5.89376 18.9553 6.42851 19.1565 6.99431C19.4716 7.87406 19.5567 8.99531 19.2301 9.94981C19.3129 9.98891 19.3946 10.0349 19.4739 10.0878C19.7902 10.2983 20.0305 10.5996 20.2076 10.9549C20.5561 11.6507 20.6998 12.6213 20.6998 13.8C20.6998 15.1122 20.1996 15.9931 19.5648 16.537C19.2137 16.838 18.7995 17.0561 18.3527 17.1753C18.2377 17.817 17.9157 18.5599 17.4108 19.1901C16.7553 20.0123 15.7387 20.7 14.3748 20.7C13.2938 20.7 12.4336 20.102 11.8747 19.5155C11.7411 19.3755 11.6159 19.2276 11.4998 19.0728C11.3837 19.2276 11.2585 19.3755 11.1249 19.5155C10.566 20.102 9.70696 20.7 8.62481 20.7C7.26091 20.7 6.24546 20.0123 5.58881 19.1901C5.11703 18.6042 4.7939 17.913 4.64695 17.1753C4.20016 17.0561 3.78589 16.838 3.43485 16.537C2.80005 15.9931 2.2998 15.111 2.2998 13.8C2.2998 12.6213 2.4447 11.6495 2.792 10.9549C2.9566 10.6064 3.20955 10.3071 3.5257 10.0867C3.60337 10.0352 3.68488 9.98987 3.7695 9.95096C3.4429 8.99416 3.528 7.87406 3.8431 6.99431C4.04435 6.42851 4.36405 5.89376 4.80335 5.53726C5.09315 5.30151 5.43816 5.14626 5.81536 5.11636C5.98096 4.33091 6.44556 3.68116 7.04931 3.21196ZM10.9248 5.17501V5.16351L10.9225 5.10601C10.9056 4.80621 10.8459 4.51036 10.7454 4.22741C10.6738 4.01381 10.552 3.82054 10.3901 3.66391C10.2202 3.51599 9.99979 3.43937 9.77481 3.45001C9.04679 3.44751 8.33782 3.68249 7.7554 4.11931C7.22181 4.53446 6.89981 5.09681 6.89981 5.75001C6.89974 5.84107 6.87804 5.93081 6.8365 6.01185C6.79497 6.09288 6.73478 6.1629 6.66089 6.21612C6.58701 6.26935 6.50153 6.30426 6.41151 6.318C6.32149 6.33173 6.2295 6.32388 6.14311 6.29511C5.9269 6.22381 5.73371 6.26406 5.52786 6.42966C5.30246 6.61366 5.0828 6.94026 4.92525 7.38071C4.6044 8.28001 4.63775 9.36906 5.0782 10.0315C5.14111 10.1258 5.17472 10.2366 5.1748 10.35H6.0373C6.72355 10.35 7.38169 10.6226 7.86694 11.1079C8.35219 11.5931 8.6248 12.2513 8.62481 12.9375V13.3228C9.00845 13.4584 9.3318 13.7253 9.53769 14.0763C9.74359 14.4273 9.81877 14.8397 9.74996 15.2408C9.68115 15.6419 9.47277 16.0057 9.16166 16.268C8.85054 16.5302 8.45673 16.6741 8.04981 16.6741C7.64289 16.6741 7.24907 16.5302 6.93795 16.268C6.62684 16.0057 6.41846 15.6419 6.34965 15.2408C6.28084 14.8397 6.35602 14.4273 6.56192 14.0763C6.76781 13.7253 7.09116 13.4584 7.4748 13.3228V12.9375C7.4748 12.144 6.8308 11.5 6.0373 11.5H4.0248C3.95606 11.4999 3.88789 11.4874 3.82355 11.4632L3.8201 11.4701C3.5924 11.9244 3.4498 12.6788 3.4498 13.8C3.4498 14.7879 3.81205 15.3445 4.1835 15.663C4.58255 16.0057 5.02531 16.1 5.1748 16.1C5.3273 16.1 5.47356 16.1606 5.58139 16.2684C5.68922 16.3763 5.7498 16.5225 5.7498 16.675C5.7498 17.0982 5.9798 17.8377 6.48581 18.4725C6.97916 19.0877 7.6887 19.55 8.62481 19.55C9.26881 19.55 9.84611 19.1901 10.2923 18.722C10.512 18.492 10.6833 18.254 10.7949 18.0585C10.8456 17.9718 10.8891 17.881 10.9248 17.7871V8.62501H9.67706C9.54142 9.00866 9.27452 9.332 8.92353 9.5379C8.57254 9.74379 8.16007 9.81897 7.75901 9.75016C7.35795 9.68135 6.99413 9.47298 6.73184 9.16186C6.46956 8.85075 6.32571 8.45693 6.32571 8.05001C6.32571 7.64309 6.46956 7.24927 6.73184 6.93815C6.99413 6.62704 7.35795 6.41866 7.75901 6.34985C8.16007 6.28104 8.57254 6.35623 8.92353 6.56212C9.27452 6.76801 9.54142 7.09136 9.67706 7.47501H10.9248V5.17501ZM12.0748 16.6739V17.7859C12.1105 17.8798 12.154 17.9706 12.2048 18.0573C12.3175 18.2528 12.4877 18.4909 12.7062 18.7209C13.1535 19.1889 13.732 19.5489 14.3748 19.5489C15.3109 19.5489 16.0205 19.0866 16.5138 18.4713C17.0198 17.8365 17.2498 17.0971 17.2498 16.6739C17.2498 16.5214 17.3104 16.3751 17.4182 16.2673C17.5261 16.1594 17.6723 16.0989 17.8248 16.0989C17.9743 16.0989 18.4171 16.0046 18.8161 15.6619C19.1876 15.3433 19.5498 14.7867 19.5498 13.7989C19.5498 12.6776 19.4061 11.9244 19.1795 11.469C19.1037 11.2994 18.9848 11.1527 18.8345 11.0435C18.705 10.9607 18.5534 10.9194 18.3998 10.925C18.2958 10.925 18.1938 10.8967 18.1045 10.8432C18.0153 10.7898 17.9423 10.7131 17.8932 10.6214C17.8441 10.5297 17.8208 10.4264 17.8258 10.3225C17.8307 10.2186 17.8638 10.118 17.9214 10.0315C18.363 9.36906 18.3952 8.28001 18.0744 7.38071C17.9168 6.94026 17.6972 6.61251 17.4718 6.42966C17.2659 6.26406 17.0727 6.22266 16.8565 6.29511C16.7701 6.32388 16.6781 6.33173 16.5881 6.318C16.4981 6.30426 16.4126 6.26935 16.3387 6.21612C16.2648 6.1629 16.2046 6.09288 16.1631 6.01185C16.1216 5.93081 16.0999 5.84107 16.0998 5.75001C16.0998 5.09681 15.7778 4.53446 15.2431 4.11931C14.661 3.68273 13.9524 3.44776 13.2248 3.45001C12.9998 3.43937 12.7794 3.51599 12.6096 3.66391C12.4472 3.82036 12.3249 4.01365 12.2531 4.22741C12.1436 4.52779 12.0834 4.84391 12.0748 5.16351V15.525H12.9373C13.7308 15.525 14.3748 14.881 14.3748 14.0875V11.9773C13.9912 11.8416 13.6678 11.5747 13.4619 11.2237C13.256 10.8727 13.1808 10.4603 13.2496 10.0592C13.3185 9.65815 13.5268 9.29433 13.838 9.03205C14.1491 8.76977 14.5429 8.62591 14.9498 8.62591C15.3567 8.62591 15.7505 8.76977 16.0617 9.03205C16.3728 9.29433 16.5812 9.65815 16.65 10.0592C16.7188 10.4603 16.6436 10.8727 16.4377 11.2237C16.2318 11.5747 15.9085 11.8416 15.5248 11.9773V14.0875C15.5248 14.7738 15.2522 15.4319 14.7669 15.9171C14.2817 16.4024 13.6236 16.675 12.9373 16.675H12.0748V16.6739ZM7.4748 8.05001C7.4748 8.20251 7.53539 8.34876 7.64322 8.45659C7.75105 8.56443 7.89731 8.62501 8.04981 8.62501C8.2023 8.62501 8.34856 8.56443 8.45639 8.45659C8.56422 8.34876 8.62481 8.20251 8.62481 8.05001C8.62481 7.89751 8.56422 7.75125 8.45639 7.64342C8.34856 7.53559 8.2023 7.47501 8.04981 7.47501C7.89731 7.47501 7.75105 7.53559 7.64322 7.64342C7.53539 7.75125 7.4748 7.89751 7.4748 8.05001ZM14.9498 10.925C15.1023 10.925 15.2486 10.8644 15.3564 10.7566C15.4642 10.6488 15.5248 10.5025 15.5248 10.35C15.5248 10.1975 15.4642 10.0513 15.3564 9.94342C15.2486 9.83559 15.1023 9.77501 14.9498 9.77501C14.7973 9.77501 14.6511 9.83559 14.5432 9.94342C14.4354 10.0513 14.3748 10.1975 14.3748 10.35C14.3748 10.5025 14.4354 10.6488 14.5432 10.7566C14.6511 10.8644 14.7973 10.925 14.9498 10.925ZM8.04981 14.375C7.89731 14.375 7.75105 14.4356 7.64322 14.5434C7.53539 14.6513 7.4748 14.7975 7.4748 14.95C7.4748 15.1025 7.53539 15.2488 7.64322 15.3566C7.75105 15.4644 7.89731 15.525 8.04981 15.525C8.2023 15.525 8.34856 15.4644 8.45639 15.3566C8.56422 15.2488 8.62481 15.1025 8.62481 14.95C8.62481 14.7975 8.56422 14.6513 8.45639 14.5434C8.34856 14.4356 8.2023 14.375 8.04981 14.375Z" fill="#3A4B57"/>
</svg>
