<svg width="40" height="40" viewBox="0 0 40 40" fill="none" xmlns="http://www.w3.org/2000/svg">
<rect width="40" height="40" rx="20" fill="#F17336"/>
<g clip-path="url(#clip0_107_2841)">
<path d="M19.9995 26.5L27.2645 28.963C27.3606 29.0007 27.4655 29.0098 27.5666 28.9892C27.6678 28.9687 27.7608 28.9193 27.8345 28.847C27.9088 28.7742 27.9609 28.6818 27.9846 28.5805C28.0084 28.4792 28.0028 28.3732 27.9685 28.275L19.9995 11L12.0295 28.275C11.9952 28.3733 11.9897 28.4793 12.0136 28.5807C12.0376 28.682 12.0899 28.7744 12.1645 28.847C12.2382 28.9193 12.3312 28.9687 12.4324 28.9892C12.5335 29.0098 12.6384 29.0007 12.7345 28.963L19.9995 26.5Z" stroke="white" stroke-width="1.5" stroke-linecap="round" stroke-linejoin="round"/>
</g>
<defs>
<clipPath id="clip0_107_2841">
<rect width="24" height="24" fill="white" transform="translate(8 8)"/>
</clipPath>
</defs>
</svg>
