<svg width="46" height="46" viewBox="0 0 46 46" fill="none" xmlns="http://www.w3.org/2000/svg">
<rect width="46" height="46" rx="23" fill="#161F26"/>
<path fill-rule="evenodd" clip-rule="evenodd" d="M25.8015 30.8317C26.4179 30.7699 26.8344 31.4242 26.5432 31.9539C26.338 32.3271 26.0488 32.6529 25.7024 32.9197C25.3491 33.1918 24.9392 33.4006 24.4995 33.5408C24.0596 33.6812 23.5925 33.7522 23.1237 33.7522C22.6549 33.7522 22.1878 33.6812 21.7479 33.5408C21.3082 33.4006 20.8983 33.1918 20.5451 32.9197C20.1986 32.6529 19.9094 32.3271 19.7042 31.9539C19.4131 31.4242 19.8295 30.7699 20.446 30.8317C20.6382 30.851 22.1428 30.9981 23.1237 30.9981C24.1046 30.9981 25.6092 30.851 25.8015 30.8317Z" fill="#A1A1AA"/>
<path fill-rule="evenodd" clip-rule="evenodd" d="M19.529 13.0875C21.7932 12.0044 24.4465 11.9676 26.7423 12.9874L26.9475 13.0785C29.3532 14.1471 30.8934 16.4622 30.8934 19.0096V20.273C30.8934 21.2885 31.1236 22.2918 31.5681 23.213L31.8335 23.7632C33.0525 26.29 31.465 29.2435 28.6156 29.7498L28.455 29.7783C24.93 30.4046 21.3154 30.4046 17.7904 29.7783C14.9027 29.2653 13.375 26.1943 14.7724 23.7115L14.9994 23.3082C15.5599 22.3124 15.8534 21.1981 15.8534 20.066V18.7923C15.8534 16.3744 17.277 14.1648 19.529 13.0875Z" fill="white"/>
</svg>
