<svg width="38" height="38" viewBox="0 0 38 38" fill="none" xmlns="http://www.w3.org/2000/svg">
<g id="button">
<rect width="38" height="38" rx="8" fill="#463127"/>
<path id="Vector" d="M27.5158 12.0128C27.9478 10.8178 26.7898 9.65975 25.5948 10.0928L10.9898 15.3748C9.7908 15.8088 9.6458 17.4448 10.7488 18.0838L15.4108 20.7828L19.5738 16.6198C19.7624 16.4376 20.015 16.3368 20.2772 16.3391C20.5394 16.3414 20.7902 16.4465 20.9756 16.6319C21.161 16.8173 21.2662 17.0682 21.2685 17.3303C21.2708 17.5925 21.17 17.8451 20.9878 18.0338L16.8248 22.1968L19.5248 26.8587C20.1628 27.9618 21.7988 27.8158 22.2328 26.6178L27.5158 12.0128Z" fill="#F17336"/>
</g>
</svg>
