<svg width="27" height="20" viewBox="0 0 27 20" fill="none" xmlns="http://www.w3.org/2000/svg">
<path id="Vector" d="M22.5544 8.42857C22.1571 8.42857 21.7196 8.72768 21.7196 9.44196H23.358C23.358 8.72768 22.9428 8.42857 22.5544 8.42857ZM17.3133 8.54464C16.9473 8.54464 16.7196 8.67411 16.5544 8.85714L16.5633 11.2143C16.7196 11.3795 16.9428 11.5134 17.3133 11.5134C17.8982 11.5134 18.291 10.875 18.291 10.0223C18.291 9.19196 17.8892 8.54018 17.3133 8.54464ZM24.1437 0H2.71512C1.53209 0 0.572266 0.959821 0.572266 2.14286V17.8571C0.572266 19.0402 1.53209 20 2.71512 20H24.1437C25.3267 20 26.2866 19.0402 26.2866 17.8571V2.14286C26.2866 0.959821 25.3267 0 24.1437 0ZM6.02762 11.1205C6.02762 12.2634 5.12137 12.9107 3.79994 12.9196C3.2553 12.9196 2.65709 12.8125 2.0678 12.558V11.0446C2.60352 11.3304 3.27762 11.5491 3.80441 11.5491C4.15709 11.5491 4.41155 11.4554 4.41155 11.1607C4.41155 10.4018 2.00084 10.6875 2.00084 8.93304C2.00084 7.80804 2.85798 7.13839 4.14369 7.13839C4.67048 7.13839 5.1928 7.21875 5.71959 7.42857V8.91964C5.23744 8.66071 4.62584 8.51339 4.14369 8.51339C3.80887 8.51339 3.60352 8.61161 3.60352 8.85714C3.60352 9.57143 6.02762 9.23214 6.02762 11.1205ZM9.09905 8.59375H7.89369V10.8482C7.89369 11.7812 8.89816 11.4911 9.09905 11.4107V12.7009C8.88923 12.817 8.5053 12.9107 7.98744 12.9107C7.04548 12.9107 6.34012 12.2188 6.34012 11.2813L6.34905 6.19643L7.89816 5.86607V7.24107H9.09905V8.59375ZM12.4026 8.70089C12.2017 8.63393 11.5678 8.54018 11.1928 9.03125V12.7991H9.60798V7.24107H10.9785L11.0767 7.70982C11.4473 7.02679 12.1883 7.16518 12.3982 7.24107H12.4026V8.70089ZM14.3714 12.7991H12.7776V7.24107H14.3714V12.7991ZM14.3714 6.41964L12.7776 6.75893V5.46875L14.3714 5.12946V6.41964ZM17.6794 12.9152C17.1258 12.9152 16.7866 12.6786 16.5589 12.5134L16.5544 14.308L14.9696 14.6429V7.24107H16.3669L16.4473 7.63393C16.666 7.43304 17.0678 7.13839 17.6883 7.13839C18.7999 7.13839 19.8491 8.14286 19.8491 9.98661C19.8491 12 18.8133 12.9107 17.6794 12.9152ZM24.8401 10.6161H21.7374C21.8089 11.3571 22.3535 11.5759 22.9696 11.5759C23.5991 11.5759 24.0946 11.442 24.5276 11.2232V12.5C24.0946 12.7366 23.5276 12.9107 22.7687 12.9107C21.2241 12.9107 20.1437 11.942 20.1437 10.0313C20.1437 8.41518 21.0589 7.13393 22.5678 7.13393C24.0723 7.13393 24.858 8.41518 24.858 10.0402C24.858 10.1964 24.8446 10.5268 24.8401 10.6161Z" fill="white"/>
</svg>
